<svg width="778" height="172" viewBox="0 0 778 172" fill="none" xmlns="http://www.w3.org/2000/svg">
<path d="M0.090001 6.24H57.36C83.8867 6.24 104.433 13.37 119 27.63C133.567 41.89 140.85 61.9767 140.85 87.89C140.85 113.957 133.567 134.197 119 148.61C104.433 162.87 83.8867 170 57.36 170H0.090001V6.24ZM55.98 150.22C96.3067 150.22 116.47 129.443 116.47 87.89C116.47 46.6433 96.3067 26.02 55.98 26.02H23.78V150.22H55.98Z" fill="#00AEEF"/>
<path d="M270.094 112.5H187.294C188.06 139.64 200.404 153.21 224.324 153.21C237.664 153.21 249.854 148.84 260.894 140.1L268.024 156.66C262.811 161.26 256.141 164.94 248.014 167.7C240.04 170.307 231.99 171.61 223.864 171.61C205.31 171.61 190.744 166.32 180.164 155.74C169.584 145.007 164.294 130.363 164.294 111.81C164.294 100.003 166.594 89.5 171.194 80.3C175.947 71.1 182.54 63.97 190.974 58.91C199.407 53.85 208.99 51.32 219.724 51.32C235.364 51.32 247.631 56.38 256.524 66.5C265.57 76.62 270.094 90.65 270.094 108.59V112.5ZM220.184 68.57C211.444 68.57 204.314 71.1767 198.794 76.39C193.274 81.6033 189.747 89.04 188.214 98.7H249.624C248.704 88.8867 245.714 81.45 240.654 76.39C235.594 71.1767 228.77 68.57 220.184 68.57ZM358.39 51.32C386.144 51.32 400.02 66.8067 400.02 97.78V170H376.79V99.16C376.79 89.04 374.797 81.68 370.81 77.08C366.977 72.48 360.767 70.18 352.18 70.18C342.367 70.18 334.47 73.2467 328.49 79.38C322.664 85.5133 319.75 93.7167 319.75 103.99V170H296.75V86.74C296.75 74.6267 296.137 63.74 294.91 54.08H316.53L318.6 74.09C322.28 66.73 327.57 61.1333 334.47 57.3C341.524 53.3133 349.497 51.32 358.39 51.32ZM511.518 170L456.088 115.26V170H433.088V0.719986H456.088V106.52L507.608 54.31H536.358L480.928 109.97L541.188 170H511.518ZM555.276 0.719986H578.276V170H555.276V0.719986ZM612.327 54.08H635.327V170H612.327V54.08ZM637.167 3.47999V27.86H610.257V3.47999H637.167ZM747.807 170L692.377 115.26V170H669.377V0.719986H692.377V106.52L743.897 54.31H772.647L717.217 109.97L777.477 170H747.807Z" fill="#252525"/>
</svg>
